<svg width="166" height="34" viewBox="0 0 166 34" fill="none" xmlns="http://www.w3.org/2000/svg">
<path d="M30.7223 29.5948C29.7609 28.7731 29.2819 27.6242 29.2819 26.1462C29.2819 24.5575 29.9092 23.3386 31.1655 22.4897C31.9787 21.9357 33.1975 21.5112 34.8221 21.2146L39.1724 20.4117C39.1536 19.544 38.9235 18.8792 38.4803 18.4172C38.0746 17.974 37.4643 17.7524 36.6512 17.7524C36.0051 17.7524 35.4409 17.9518 34.9618 18.3473C34.4811 18.7445 34.176 19.2849 34.0481 19.9685H29.8649C30.049 18.7684 30.4785 17.7609 31.1536 16.9495C31.8269 16.1363 32.6503 15.5329 33.6186 15.134C34.5885 14.7368 35.6079 14.5391 36.6802 14.5391C37.6228 14.5391 38.5093 14.6686 39.3395 14.9277C40.1713 15.1868 40.8822 15.5738 41.472 16.092C42.0635 16.6085 42.4931 17.2103 42.7607 17.8922C43.0284 18.5757 43.1937 19.2729 43.2585 19.9838C43.3233 20.6947 43.3557 21.6135 43.3557 22.7403V30.4982H39.1451V28.4765C38.8502 29.1413 38.4343 29.6408 37.899 29.9732C37.0501 30.546 35.8858 30.8324 34.4078 30.8324C32.9299 30.8324 31.6837 30.4215 30.724 29.5999L30.7223 29.5948ZM37.3723 27.1707C38.0746 26.8383 38.5536 26.3866 38.8127 25.8138C39.0718 25.241 39.2184 24.4466 39.2559 23.4307L35.9591 24.0682C35.4238 24.179 35.0028 24.3 34.6976 24.4279C34.3925 24.5575 34.1385 24.7143 33.9356 24.8984C33.622 25.212 33.4651 25.582 33.4651 26.0064C33.4651 26.5246 33.6595 26.9167 34.0464 27.1844C34.4334 27.452 34.9329 27.5867 35.5431 27.5867C36.1892 27.5867 36.7995 27.4486 37.3723 27.1707Z" fill="#FBAD2C"/>
<path d="M48.4244 30.4952C47.2601 30.4952 46.3652 30.2224 45.7379 29.6786C45.1105 29.1348 44.7952 28.3166 44.7952 27.2273V9.35547H49.0057V25.867C49.0057 26.6614 49.3654 27.0585 50.0865 27.0585H51.1672V30.4935H48.4244V30.4952Z" fill="#FBAD2C"/>
<path d="M52.7191 12.8602C52.2383 12.4443 51.9997 11.8954 51.9997 11.2118C51.9997 10.5282 52.2401 10.0032 52.7191 9.577C53.1998 9.15254 53.7811 8.93945 54.4647 8.93945C55.1482 8.93945 55.7295 9.15254 56.2102 9.577C56.691 10.0015 56.9296 10.547 56.9296 11.2118C56.9296 11.8766 56.6944 12.4443 56.2239 12.8602C55.7534 13.2762 55.167 13.4841 54.4647 13.4841C53.7623 13.4841 53.1998 13.2762 52.7191 12.8602ZM56.5699 30.4951H52.3594V14.87H56.5699V30.4951Z" fill="#FBAD2C"/>
<path d="M66.2091 30.4952H62.2201L57.3993 14.8701H61.8877L64.3527 24.4845L67.012 14.8701H70.6412L73.3005 24.4282L75.849 14.8701H80.3102L75.3785 30.4952H71.4168L68.8684 20.5501L66.2091 30.4952Z" fill="#FBAD2C"/>
<path d="M81.5297 12.8602C81.049 12.4443 80.8103 11.8954 80.8103 11.2118C80.8103 10.5282 81.0507 10.0032 81.5297 9.577C82.0104 9.15254 82.5917 8.93945 83.2753 8.93945C83.9588 8.93945 84.5401 9.15254 85.0209 9.577C85.5016 10.0015 85.7402 10.547 85.7402 11.2118C85.7402 11.8766 85.505 12.4443 85.0345 12.8602C84.564 13.2762 83.9776 13.4841 83.2753 13.4841C82.5729 13.4841 82.0104 13.2762 81.5297 12.8602ZM85.3805 30.4951H81.17V14.87H85.3805V30.4951Z" fill="#FBAD2C"/>
<path d="M92.3335 30.4957C91.1692 30.4957 90.2742 30.2229 89.6452 29.6791C89.0179 29.1353 88.7025 28.3171 88.7025 27.2278V18.1964H86.4865V14.8723H88.7025V9.35938H92.9131V14.8723H95.7667V18.1964H92.9131V25.8709C92.9131 26.2408 92.9864 26.5306 93.1347 26.7437C93.283 26.9568 93.5779 27.0624 94.0211 27.0624H95.7394V30.4974H92.3318L92.3335 30.4957Z" fill="#FBAD2C"/>
<path d="M97.2116 30.4952V9.35547H101.422V16.6975C101.957 15.9031 102.557 15.344 103.222 15.0218C103.887 14.6996 104.663 14.5377 105.549 14.5377C108.043 14.5377 109.695 15.4241 110.508 17.197C110.784 17.8073 110.956 18.4261 111.021 19.0534C111.086 19.6807 111.118 20.5399 111.118 21.6291V30.4952H106.935V21.5746C106.935 20.799 106.879 20.1751 106.768 19.7046C106.657 19.2341 106.473 18.859 106.214 18.5829C105.808 18.1584 105.198 17.9453 104.385 17.9453C103.331 17.9453 102.593 18.2402 102.169 18.8318C101.91 19.1454 101.72 19.5614 101.601 20.0779C101.48 20.5961 101.42 21.278 101.42 22.1286V30.4952H97.2099H97.2116Z" fill="#FBAD2C"/>
<path d="M124.292 30.4952C123.127 30.4952 122.232 30.2224 121.603 29.6786C120.976 29.1348 120.661 28.3166 120.661 27.2273V9.35547H124.871V25.867C124.871 26.6614 125.233 27.0585 125.952 27.0585H127.033V30.4935H124.29L124.292 30.4952Z" fill="#FBAD2C"/>
<path d="M118.131 12.6267H119.571V9.35547H117.106C115.702 9.35547 114.621 9.70493 113.866 10.3953C113.106 11.0908 112.729 12.0642 112.729 13.3171V30.4969H116.97V18.1669H119.571V14.8701H116.97V13.9274C116.97 13.0597 117.355 12.6284 118.131 12.6284V12.6267Z" fill="#FBAD2C"/>
<path d="M130.89 29.8018C129.661 29.1182 128.706 28.1533 128.022 26.9072C127.339 25.6611 126.998 24.2241 126.998 22.5995C126.998 20.9749 127.339 19.6351 128.022 18.4162C128.706 17.1974 129.662 16.2462 130.89 15.5626C132.117 14.879 133.525 14.5381 135.114 14.5381C136.703 14.5381 138.111 14.879 139.34 15.5626C140.567 16.2462 141.518 17.1974 142.193 18.4162C142.867 19.6351 143.204 21.0295 143.204 22.5995C143.204 24.1695 142.867 25.6611 142.193 26.9072C141.518 28.1533 140.572 29.1199 139.353 29.8018C138.134 30.4853 136.721 30.8263 135.114 30.8263C133.506 30.8263 132.117 30.4853 130.89 29.8018ZM137.829 25.9373C138.513 25.0969 138.854 23.9837 138.854 22.5995C138.854 21.2886 138.513 20.2164 137.829 19.3862C137.146 18.556 136.241 18.1401 135.114 18.1401C133.987 18.1401 133.073 18.5509 132.371 19.3725C131.669 20.1942 131.319 21.2699 131.319 22.5995C131.319 23.9291 131.67 25.0986 132.371 25.9373C133.073 26.7777 133.987 27.197 135.114 27.197C136.241 27.197 137.146 26.7777 137.829 25.9373Z" fill="#FBAD2C"/>
<path d="M151.683 30.4952H147.694L142.873 14.8701H147.361L149.826 24.4845L152.485 14.8701H156.115L158.774 24.4282L161.323 14.8701H165.784L160.852 30.4952H156.89L154.342 20.5501L151.683 30.4952Z" fill="#FBAD2C"/>
<path d="M25.326 18.6051C24.3561 17.584 23.0333 16.7964 21.4002 16.2543C21.3439 16.2288 21.274 16.2032 21.1803 16.1725C20.7643 16.0464 20.3296 15.927 19.8762 15.8265C21.6337 13.7348 23.4986 10.9494 23.4424 7.47695C23.335 3.99941 20.7336 1.4782 17.1163 1.35205C13.5126 1.21909 10.2414 3.12832 8.60999 4.2875C8.29462 4.51423 7.97414 4.75459 7.65878 5.00006C6.29844 3.65848 4.89209 2.3919 3.65108 1.26341L3.11581 0.772461L0.204224 3.98578L0.746311 4.47672C1.94299 5.5609 3.29821 6.78315 4.58354 8.04973C3.26071 9.66917 2.22086 11.4523 1.48273 13.3427C-0.0804574 17.3504 -0.0923902 21.3837 1.45716 25.0317C2.8567 28.2075 5.40178 30.1048 8.26905 30.1048C8.42077 30.1048 8.5776 30.098 8.73613 30.0929C11.8796 29.8594 14.4707 27.4336 15.4901 23.7481L15.502 23.685C15.8174 22.3554 15.9435 21.007 15.8736 19.6705C16.0441 19.6824 16.2077 19.6961 16.3782 19.708C16.7123 19.7268 17.0464 19.7591 17.3737 19.7898C19.0682 19.9603 20.9587 20.3064 22.1809 21.5917C23.9572 23.4634 23.2702 25.48 22.8935 26.2608C22.0803 27.9246 20.0262 29.6071 17.4487 29.3616L17.3737 29.3548C16.6049 29.3105 15.7799 29.0957 14.9224 28.7377L11.6903 31.9646C13.5297 32.9926 15.3452 33.5721 17.072 33.6847C17.3618 33.7102 17.6516 33.7153 17.9414 33.7153C21.6661 33.7153 25.1368 31.5351 26.7887 28.1581C28.4013 24.8442 27.8541 21.2712 25.326 18.6051ZM11.2949 22.6435C10.7783 24.4777 9.67541 25.6744 8.42077 25.7681C7.26159 25.8568 6.14673 24.9294 5.42735 23.3049C3.86416 19.6057 4.67048 15.1395 7.57013 11.2818C10.9607 15.3969 12.1455 19.0125 11.2949 22.6418V22.6435ZM14.8031 14.8684C13.9337 12.6813 12.5665 10.4891 10.6249 8.18269C10.7817 8.06336 10.9454 7.94404 11.1107 7.823C12.2955 6.97919 14.6207 5.57283 16.9527 5.68023C17.5834 5.7058 19.0511 5.93934 19.1074 7.58946C19.133 9.44245 17.5323 12.1392 14.8031 14.8667V14.8684Z" fill="#FBAD2C"/>
</svg>
