<svg width="28" height="28" viewBox="0 0 28 28" fill="none" xmlns="http://www.w3.org/2000/svg">
<path d="M14 0.666687C6.64796 0.666687 0.666626 6.64802 0.666626 14C0.666626 21.352 6.64796 27.3334 14 27.3334C21.352 27.3334 27.3333 21.352 27.3333 14C27.3333 6.64802 21.352 0.666687 14 0.666687ZM3.33329 14C3.33329 12.8014 3.54129 11.6507 3.90796 10.5747L5.99996 12.6667L8.66663 15.3334V18L11.3333 20.6667L12.6666 22V24.5747C7.41463 23.9147 3.33329 19.4294 3.33329 14ZM22.44 20.4974C21.5693 19.796 20.2493 19.3334 19.3333 19.3334V18C19.3333 17.2928 19.0523 16.6145 18.5522 16.1144C18.0521 15.6143 17.3739 15.3334 16.6666 15.3334H11.3333V11.3334C12.0405 11.3334 12.7188 11.0524 13.2189 10.5523C13.719 10.0522 14 9.37393 14 8.66669V7.33335H15.3333C16.0405 7.33335 16.7188 7.0524 17.2189 6.5523C17.719 6.05221 18 5.37393 18 4.66669V4.11869C21.904 5.70402 24.6666 9.53335 24.6666 14C24.6661 16.3529 23.8827 18.6387 22.44 20.4974Z" fill="#F48712"/>
</svg>
