<svg width="28" height="26" viewBox="0 0 28 26" fill="none" xmlns="http://www.w3.org/2000/svg">
<path d="M22.0006 26V6.00002H24.6673C25.4006 6.00002 26.0286 6.26135 26.5513 6.78402C27.074 7.30669 27.3349 7.93424 27.334 8.66669V23.3334C27.334 24.0667 27.0731 24.6947 26.5513 25.2174C26.0295 25.74 25.4015 26.0009 24.6673 26H22.0006ZM11.334 6.00002H16.6673V3.33335H11.334V6.00002ZM8.6673 26V3.33335C8.6673 2.60002 8.92863 1.97246 9.4513 1.45069C9.97396 0.928909 10.6015 0.667576 11.334 0.666687H16.6673C17.4006 0.666687 18.0286 0.92802 18.5513 1.45069C19.074 1.97335 19.3349 2.60091 19.334 3.33335V26H8.6673ZM3.33396 26C2.60063 26 1.97308 25.7391 1.4513 25.2174C0.92952 24.6956 0.668186 24.0676 0.667297 23.3334V8.66669C0.667297 7.93335 0.928631 7.3058 1.4513 6.78402C1.97396 6.26224 2.60152 6.00091 3.33396 6.00002H6.00063V26H3.33396Z" fill="#F48712"/>
</svg>
